<svg xmlns="http://www.w3.org/2000/svg" viewBox="0 0 120 140" fill="none" aria-hidden="true">
  <title>Lighthouse Ledger</title>
  <!-- Base -->
  <rect x="35" y="100" width="50" height="12" rx="2" fill="#4a4a4a"/>
  <!-- Stacked segments -->
  <path d="M40 88 L45 100 L75 100 L80 88 Z" fill="#4a4a4a"/>
  <path d="M42 76 L47 88 L73 88 L78 76 Z" fill="#4a4a4a"/>
  <path d="M44 64 L48 76 L72 76 L76 64 Z" fill="#4a4a4a"/>
  <path d="M46 52 L49 64 L71 64 L74 52 Z" fill="#4a4a4a"/>
  <path d="M48 40 L50 52 L70 52 L72 40 Z" fill="#4a4a4a"/>
  <path d="M50 28 L51 40 L69 40 L70 28 Z" fill="#4a4a4a"/>
  <path d="M52 16 L52 28 L68 28 L68 16 Z" fill="#4a4a4a"/>
  <!-- Blue beacon -->
  <rect x="54" y="4" width="16" height="14" rx="1" fill="#2563eb"/>
  <!-- Red beacon -->
  <rect x="56" y="0" width="12" height="6" rx="1" fill="#b71c2a"/>
</svg>
